<svg width="40" height="41" viewBox="0 0 40 41" fill="none" xmlns="http://www.w3.org/2000/svg">
<path d="M13.379 32.8236C13.379 32.9922 13.1935 33.1271 12.9597 33.1271C12.6935 33.1523 12.5081 33.0175 12.5081 32.8236C12.5081 32.655 12.6935 32.5201 12.9274 32.5201C13.1694 32.4949 13.379 32.6297 13.379 32.8236ZM10.871 32.4443C10.8145 32.6129 10.9758 32.8067 11.2177 32.8573C11.4274 32.9416 11.6694 32.8573 11.7177 32.6887C11.7661 32.5201 11.6129 32.3263 11.371 32.2504C11.1613 32.1914 10.9274 32.2757 10.871 32.4443ZM14.4355 32.301C14.2016 32.36 14.0403 32.5201 14.0645 32.714C14.0887 32.8826 14.2984 32.9922 14.5403 32.9332C14.7742 32.8742 14.9355 32.714 14.9113 32.5454C14.8871 32.3853 14.6694 32.2757 14.4355 32.301ZM19.7419 0C8.55645 0 0 8.87603 0 20.5674C0 29.9155 5.62903 37.9149 13.6694 40.7303C14.7016 40.9241 15.0645 40.2582 15.0645 39.7103C15.0645 39.1877 15.0403 36.3049 15.0403 34.5347C15.0403 34.5347 9.39516 35.7991 8.20968 32.0228C8.20968 32.0228 7.29032 29.5699 5.96774 28.9377C5.96774 28.9377 4.12097 27.6143 6.09677 27.6396C6.09677 27.6396 8.10484 27.8082 9.20968 29.8144C10.9758 33.0681 13.9355 32.1324 15.0887 31.5761C15.2742 30.2274 15.7984 29.2917 16.379 28.7354C11.871 28.2128 7.32258 27.53 7.32258 19.4211C7.32258 17.103 7.93548 15.9398 9.22581 14.4562C9.01613 13.9083 8.33064 11.6493 9.43548 8.73273C11.121 8.18483 15 11.0086 15 11.0086C16.6129 10.5366 18.3468 10.2921 20.0645 10.2921C21.7823 10.2921 23.5161 10.5366 25.129 11.0086C25.129 11.0086 29.0081 8.1764 30.6935 8.73273C31.7984 11.6577 31.1129 13.9083 30.9032 14.4562C32.1936 15.9482 32.9839 17.1114 32.9839 19.4211C32.9839 27.5553 28.2339 28.2044 23.7258 28.7354C24.4677 29.4013 25.0968 30.6657 25.0968 32.6466C25.0968 35.4873 25.0726 39.0023 25.0726 39.6935C25.0726 40.2414 25.4435 40.9073 26.4677 40.7134C34.5323 37.9149 40 29.9155 40 20.5674C40 8.87603 30.9274 0 19.7419 0ZM7.83871 29.0726C7.73387 29.1569 7.75806 29.3507 7.89516 29.5109C8.02419 29.6458 8.20968 29.7048 8.31452 29.5952C8.41935 29.5109 8.39516 29.317 8.25806 29.1569C8.12903 29.022 7.94355 28.963 7.83871 29.0726ZM6.96774 28.3898C6.91129 28.4994 6.99194 28.6343 7.15323 28.7185C7.28226 28.8028 7.44355 28.7776 7.5 28.6595C7.55645 28.55 7.47581 28.4151 7.31452 28.3308C7.15323 28.2802 7.02419 28.3055 6.96774 28.3898ZM9.58065 31.3906C9.45161 31.5002 9.5 31.7531 9.68548 31.9132C9.87097 32.1071 10.1048 32.1324 10.2097 31.9975C10.3145 31.888 10.2661 31.6351 10.1048 31.4749C9.92742 31.281 9.68548 31.2558 9.58065 31.3906ZM8.66129 30.1515C8.53226 30.2358 8.53226 30.455 8.66129 30.6489C8.79032 30.8427 9.00806 30.927 9.1129 30.8427C9.24193 30.7331 9.24193 30.514 9.1129 30.3201C9 30.1262 8.79032 30.0419 8.66129 30.1515Z" fill="#959DA8"/>
</svg>
