<svg width="40" height="36" viewBox="0 0 40 36" fill="none" xmlns="http://www.w3.org/2000/svg">
<path d="M16.0696 7.00344C17.0699 6.58395 17.4894 5.39002 17.0376 4.42198L15.4565 1.09835C15.0047 0.162897 13.9076 -0.256913 12.9396 0.162897C10.1968 1.32455 7.84118 2.84116 5.96962 4.68045C3.67858 6.84209 2.1297 9.32675 1.29073 12.0695C0.451755 14.8449 0 18.62 0 23.428V33.3343C0 34.3992 0.871242 35.2704 1.93609 35.2704H14.6175C15.6824 35.2704 16.5536 34.3992 16.5536 33.3343V20.6529C16.5536 19.5877 15.6824 18.7168 14.6175 18.7168H8.55108C8.61561 15.4574 9.39005 12.844 10.8099 10.8753C11.9715 9.2948 13.714 8.00407 16.0696 7.00344Z" fill="#021227"/>
<path d="M38.8509 7.00349C39.8512 6.58401 40.2704 5.39008 39.8189 4.42204L38.2378 1.131C37.7861 0.195223 36.6889 -0.224264 35.7209 0.195223C33.0104 1.35688 30.6867 2.87349 28.7832 4.68051C26.4919 6.87474 24.911 9.3594 24.0717 12.1022C23.2328 14.8124 22.8136 18.5881 22.8136 23.4283V33.3347C22.8136 34.3995 23.6848 35.2708 24.7497 35.2708H37.4311C38.496 35.2708 39.3672 34.3995 39.3672 33.3347V20.6533C39.3672 19.5881 38.496 18.7172 37.4311 18.7172H31.3324C31.3969 15.4578 32.1717 12.8444 33.5912 10.8757C34.7528 9.29486 36.4953 8.00413 38.8509 7.00349Z" fill="#021227"/>
</svg>
