<svg width="40" height="33" viewBox="0 0 40 33" fill="none" xmlns="http://www.w3.org/2000/svg">
<path d="M35.8884 8.0236C35.9138 8.37572 35.9138 8.72791 35.9138 9.08003C35.9138 19.8201 27.6651 32.1951 12.5889 32.1951C7.94417 32.1951 3.62947 30.862 0 28.5481C0.659924 28.6235 1.29438 28.6486 1.9797 28.6486C5.81213 28.6486 9.34011 27.3659 12.1574 25.1776C8.55331 25.1021 5.53299 22.763 4.49236 19.5434C5.00002 19.6189 5.5076 19.6692 6.04065 19.6692C6.77667 19.6692 7.51276 19.5685 8.198 19.3925C4.44166 18.6379 1.6243 15.3681 1.6243 11.4192V11.3186C2.71564 11.9223 3.98478 12.2996 5.32986 12.3498C3.12173 10.8909 1.67508 8.40088 1.67508 5.58379C1.67508 4.07467 2.0811 2.69128 2.79181 1.48396C6.82737 6.41383 12.8934 9.63329 19.6954 9.98548C19.5685 9.38182 19.4923 8.75307 19.4923 8.12425C19.4923 3.64706 23.1472 0 27.6903 0C30.0507 0 32.1827 0.980943 33.6802 2.56555C35.533 2.21343 37.3096 1.53428 38.8833 0.603663C38.2741 2.49014 36.9797 4.07474 35.2792 5.08077C36.929 4.90479 38.528 4.45195 40 3.8232C38.8834 5.43289 37.4874 6.86652 35.8884 8.0236Z" fill="#959DA8"/>
</svg>
